<?xml version="1.0" standalone="no"?>
<!DOCTYPE svg PUBLIC "-//W3C//DTD SVG 20010904//EN"
 "http://www.w3.org/TR/2001/REC-SVG-20010904/DTD/svg10.dtd">
<svg version="1.0" xmlns="http://www.w3.org/2000/svg"
 width="392.000000pt" height="139.000000pt" viewBox="0 0 392.000000 139.000000"
 preserveAspectRatio="xMidYMid meet">

<g transform="translate(0.000000,139.000000) scale(0.100000,-0.100000)"
fill="#000000" stroke="none">
<path d="M2136 1214 c-73 -26 -138 -93 -160 -161 -7 -20 -4 -23 23 -23 25 0
33 6 47 36 23 48 71 82 137 96 72 15 132 -6 182 -64 94 -111 32 -292 -109
-315 -32 -5 -36 -9 -36 -34 0 -34 14 -37 83 -13 147 50 213 241 128 372 -65
101 -189 145 -295 106z"/>
</g>
</svg>
